<svg width="31" height="32" viewBox="0 0 31 32" fill="none" xmlns="http://www.w3.org/2000/svg">
<path d="M19.5321 18.2422L15.5867 20.6367L11.5545 18.3946L11.4678 13.7578L15.4132 11.3633L19.4454 13.6054L19.5321 18.2422Z" fill="white"/>
<path d="M26.8811 21.0939L23.5426 15.3469L20.2258 9.57823H26.8811V21.0939Z" fill="white"/>
<path d="M4.48743 11.015L7.9126 16.6966L11.3378 22.4L4.68253 22.5088L4.48743 11.015Z" fill="white"/>
<path d="M17.1476 28.2775L20.356 22.4653L23.5427 16.6313L26.9679 22.3565L17.1476 28.2775Z" fill="white"/>
<path d="M14.221 3.80952L11.121 9.70884L8.02099 15.5864L4.48743 9.92653L14.221 3.80952Z" fill="white"/>
<path d="M5.89648 23.4014L12.5084 23.2707L19.1419 23.1184L15.9335 28.9742L5.89648 23.4014Z" fill="white"/>
<path d="M25.5154 8.59864L18.9035 8.85986L12.2699 9.12109L15.3916 3.2L25.5154 8.59864Z" fill="white"/>
</svg>
