<svg width="34" height="32" viewBox="0 0 34 32" fill="none" xmlns="http://www.w3.org/2000/svg">
<path d="M20.796 1.54064C21.4854 0.599476 22.585 0.0386414 23.7566 0.0307582L28.308 9.08364e-05C31.3189 -0.0201883 33.0618 3.35935 31.2871 5.77664L13.1413 30.4929C12.4463 31.4394 11.3368 32 10.1579 32H5.66686C2.66911 32 0.946025 28.6346 2.71056 26.2262L20.796 1.54064Z" fill="#5AD769"/>
<path d="M5.51567 1.54895C6.22817 0.576298 7.36803 0 8.57938 0L13.2387 1.91572e-05C16.3165 1.91572e-05 18.0832 3.45411 16.2675 5.92154L11.4576 12.4578C10.7447 13.4265 9.60724 14 8.39879 14H3.76126C0.687254 14 -1.08043 10.5535 0.727663 8.08517L5.51567 1.54895Z" fill="#5AD769"/>
<path d="M22.5156 19.549C23.2281 18.5764 24.368 18 25.5793 18H30.2387C33.3165 18.0001 35.0832 21.4541 33.2675 23.9214L28.4575 30.4575C27.7447 31.4264 26.6072 32 25.3989 32H20.7612C17.6873 32 15.9197 28.5533 17.7276 26.0851L22.5156 19.549Z" fill="#5AD769"/>
</svg>
