<svg width="30" height="31" viewBox="0 0 30 31" xmlns="http://www.w3.org/2000/svg">
<path d="M29.0949 16.6375C28.4862 17.2483 27.7619 17.5608 26.9228 17.5608C26.0837 17.5608 25.376 17.2624 24.7669 16.655C24.1581 16.0477 23.8618 15.3209 23.8618 14.4819C23.8618 13.6428 24.1539 12.9301 24.7504 12.3262C25.3549 11.7153 26.0834 11.4204 26.9228 11.4204C27.7622 11.4204 28.4862 11.7189 29.0949 12.3262C29.7037 12.9371 30 13.6428 30 14.4819C30 15.3209 29.7037 16.0301 29.0949 16.6375Z" fill="white"/>
<path d="M23.22 8.59082C22.4301 8.59082 21.7719 8.32754 21.2287 7.78337C20.6856 7.24273 20.4223 6.60023 20.4223 5.82783C20.4223 5.052 20.6814 4.39195 21.2287 3.83371C21.7676 3.28955 22.4301 3.02979 23.22 3.02979C23.9934 3.02979 24.6352 3.29308 25.1783 3.83371C25.7379 4.39543 26.0177 5.052 26.0177 5.82783C26.0177 6.60023 25.7341 7.23915 25.1783 7.78337C24.631 8.32401 23.9934 8.59082 23.22 8.59082Z" fill="white"/>
<path d="M23.6315 19.6006C24.5366 19.6006 25.3265 19.9306 25.9848 20.5871C26.643 21.2471 26.972 22.037 26.972 22.9568C26.972 23.8942 26.6427 24.6841 25.9848 25.3441C25.343 25.9866 24.5531 26.3131 23.6315 26.3131C22.6934 26.3131 21.9035 25.9866 21.2618 25.3441C20.6035 24.6841 20.2745 23.8942 20.2745 22.9568C20.2745 22.037 20.6038 21.2471 21.2618 20.5871C21.92 19.9306 22.7099 19.6006 23.6315 19.6006Z" fill="white"/>
<path d="M14.5309 5.02039C13.8397 5.02039 13.2432 4.77813 12.7538 4.2796C12.2725 3.79161 12.0299 3.1948 12.0299 2.48563C12.0299 1.79401 12.2728 1.1972 12.7538 0.72671C13.2436 0.242249 13.8401 -6.49984e-06 14.5309 -6.49984e-06C15.2387 -6.49984e-06 15.8268 0.252788 16.3081 0.72671C16.7978 1.20769 17.0485 1.79397 17.0485 2.48563C17.0485 3.1948 16.8017 3.8021 16.3081 4.29715C15.831 4.7746 15.2387 5.02039 14.5309 5.02039Z" fill="white"/>
<path d="M14.5309 30.0836C13.5272 30.0836 12.6713 29.7361 11.9639 29.0304C11.2561 28.3212 10.9106 27.4821 10.9106 26.4781C10.9106 25.474 11.2561 24.6033 11.9639 23.8942C12.6716 23.1885 13.5272 22.841 14.5309 22.841C15.5346 22.841 16.3906 23.1885 17.098 23.8942C17.8057 24.6034 18.1677 25.4741 18.1677 26.4781C18.1677 27.4821 17.8057 28.3212 17.098 29.0304C16.3906 29.7361 15.5346 30.0836 14.5309 30.0836Z" fill="white"/>
<path d="M5.85833 21.2962C6.30279 21.2962 6.71358 21.4437 7.04318 21.7737C7.70181 22.4302 7.70181 23.501 7.04318 24.1574C6.71353 24.4874 6.30279 24.6349 5.85833 24.6349C5.43039 24.6349 5.0249 24.4839 4.68995 24.1574C4.00431 23.4939 4.00431 22.4372 4.68995 21.7737C5.0249 21.4471 5.43073 21.2962 5.85833 21.2962Z" fill="white"/>
<path d="M5.85833 8.24683C5.2496 8.24683 4.73103 8.0081 4.27848 7.56928C3.84245 7.15153 3.62019 6.63192 3.62019 6.02452C3.62019 5.41369 3.83402 4.88707 4.27848 4.44467C4.72294 3.99879 5.24956 3.7706 5.85833 3.7706C6.4671 3.7706 6.99372 3.99879 7.43818 4.44467C7.88264 4.88702 8.09647 5.41369 8.09647 6.02452C8.09647 6.63192 7.87426 7.15148 7.43818 7.56928C6.98563 8.0081 6.4675 8.24683 5.85833 8.24683Z" fill="white"/>
<path d="M3.32431 15.8651C2.94583 16.2442 2.50137 16.4408 1.95828 16.4408C1.4152 16.4408 0.938088 16.2442 0.559608 15.8651C0.181127 15.4859 0 15.026 0 14.4819C0 13.9412 0.181127 13.4637 0.559608 13.0846C0.938088 12.7055 1.4152 12.5229 1.95828 12.5229C2.50137 12.5229 2.94549 12.7055 3.32431 13.0846C3.70274 13.4637 3.90039 13.9412 3.90039 14.4819C3.90005 15.026 3.70274 15.4859 3.32431 15.8651Z" fill="white"/>
</svg>
