<svg width="100" height="100" viewBox="0 0 59 59" fill="none" xmlns="http://www.w3.org/2000/svg">
<g clip-path="url(#clip0_0_100)">
<path d="M29.4999 12C28.246 12.0064 27.0056 12.2659 25.8495 12.7638C24.6935 13.2616 23.6444 13.9881 22.7622 14.9017C21.8801 15.8152 21.1821 16.898 20.7082 18.0881C20.2342 19.2782 19.9937 20.5523 20.0001 21.8377V25.0872H27.7188V20.3794C27.7187 20.1583 27.7611 19.9394 27.8436 19.7351C27.9261 19.5308 28.047 19.3452 28.1995 19.1888C28.352 19.0325 28.533 18.9085 28.7323 18.8239C28.9315 18.7393 29.1451 18.6958 29.3608 18.6958H29.639C29.8547 18.6958 30.0683 18.7393 30.2676 18.8239C30.4669 18.9085 30.6479 19.0325 30.8005 19.1888C30.953 19.3452 31.0739 19.5308 31.1565 19.7351C31.239 19.9394 31.2814 20.1583 31.2814 20.3794V33C32.295 33 33.2988 32.7953 34.2352 32.3978C35.1717 32.0001 36.0226 31.4173 36.7395 30.6825C37.4561 29.9477 38.0247 29.0754 38.4125 28.1154C38.8004 27.1553 39.0001 26.1263 39 25.0872V21.8377C39.0055 19.2333 38.0051 16.7325 36.2174 14.8819C35.3402 13.9687 34.2945 13.2436 33.1412 12.7488C31.9879 12.254 30.7501 11.9995 29.4999 12Z" fill="white"/>
<path d="M29.639 39.3339H29.3607C29.1451 39.3339 28.9315 39.2903 28.7323 39.2056C28.5331 39.1208 28.3521 38.9965 28.1996 38.8399C28.0471 38.6832 27.9262 38.4974 27.8437 38.2927C27.7612 38.088 27.7187 37.8686 27.7188 37.647V25C26.7052 24.9999 25.7015 25.2049 24.765 25.6034C23.8285 26.0018 22.9777 26.5859 22.2609 27.3222C21.5442 28.0586 20.9757 28.9327 20.5878 29.8948C20.2 30.8569 20.0004 31.888 20.0005 32.9293V36.1402C19.9876 37.4303 20.2239 38.7101 20.6955 39.9058C21.1671 41.1015 21.8648 42.1892 22.7482 43.106C23.6316 44.023 24.6831 44.7508 25.842 45.2475C27.001 45.7442 28.2443 46 29.5 46C30.7557 46 31.999 45.7442 33.1579 45.2475C34.3169 44.7508 35.3684 44.023 36.2519 43.106C37.1351 42.1892 37.8328 41.1015 38.3046 39.9058C38.7761 38.7101 39.0123 37.4303 38.9995 36.1402V32.9293H31.2812V37.647C31.2812 37.8686 31.2387 38.088 31.1562 38.2927C31.0737 38.4974 30.9527 38.6833 30.8002 38.8399C30.6477 38.9967 30.4666 39.1208 30.2674 39.2056C30.0681 39.2903 29.8546 39.3339 29.639 39.3339Z" fill="white"/>
</g>
<defs>
<clipPath id="clip0_0_100">
<rect width="100" height="100" fill="white"/>
</clipPath>
</defs>
</svg>
