<svg width="28" height="28" viewBox="0 0 28 28" fill="none" xmlns="http://www.w3.org/2000/svg">
<mask id="mask0_1_311" style="mask-type:luminance" maskUnits="userSpaceOnUse" x="0" y="0" width="28" height="28">
<path d="M16.849 1.16988L26.8296 11.1274C28.3902 12.7054 28.3902 15.2447 26.8296 16.8227L16.8308 26.8165C15.2703 28.3945 12.7116 28.3945 11.1329 26.8165L1.17045 16.8408C-0.390149 15.281 -0.390149 12.7236 1.17045 11.1456L11.151 1.16988C12.7297 -0.389959 15.2703 -0.389959 16.849 1.16988ZM13.3286 3.69101L13.2923 3.72729L3.74725 13.2677C3.36617 13.6486 3.34802 14.2471 3.71095 14.6462L3.74725 14.6824L13.2923 24.2228C13.6734 24.6037 14.2722 24.6219 14.6714 24.2591L24.2528 14.6824C24.652 14.2834 24.652 13.6486 24.2528 13.2677L14.7077 3.72729C14.3266 3.36453 13.7278 3.3464 13.3286 3.69101ZM14.1633 7.89895L20.0791 13.7937C20.1879 13.9025 20.1879 14.0476 20.0791 14.1564L14.1633 20.0693C14.0544 20.1781 13.9093 20.1781 13.8004 20.0693L7.90279 14.1746C7.79391 14.0657 7.79391 13.9206 7.90279 13.8118L13.8185 7.89895C13.9093 7.80826 14.0726 7.80826 14.1633 7.89895Z" fill="white"/>
</mask>
<g mask="url(#mask0_1_311)">
<rect width="30.458" height="29.8578" transform="matrix(1 0 0 -1 -0.898621 28.9338)" fill="#34164A"/>
</g>
</svg>
