<svg width="26" height="21" viewBox="0 0 26 21" fill="none" xmlns="http://www.w3.org/2000/svg">
<path d="M26 2.55723C25.0434 2.97695 24.0153 3.26062 22.9363 3.38821C24.0377 2.73505 24.8834 1.70085 25.2817 0.468587C24.2511 1.07329 23.1095 1.51248 21.8944 1.74921C20.9214 0.723563 19.535 0.0826416 18.0009 0.0826416C15.0549 0.0826416 12.6665 2.44545 12.6665 5.3598C12.6665 5.77341 12.7137 6.1762 12.8047 6.56242C8.37137 6.34235 4.44089 4.24139 1.80999 1.04863C1.35083 1.82805 1.08778 2.73458 1.08778 3.7017C1.08778 5.53255 2.02958 7.14784 3.46087 8.09416C2.5864 8.06678 1.76396 7.8294 1.0447 7.43414C1.04432 7.45616 1.04432 7.47827 1.04432 7.50047C1.04432 10.0574 2.88302 12.1903 5.32325 12.6751C4.87561 12.7957 4.40437 12.8601 3.91783 12.8601C3.57413 12.8601 3.23994 12.8271 2.91431 12.7655C3.59306 14.8621 5.563 16.3879 7.89719 16.4305C6.07161 17.8458 3.77156 18.6895 1.27247 18.6895C0.84194 18.6895 0.417309 18.6646 0 18.6158C2.36063 20.1131 5.16453 20.9867 8.17689 20.9867C17.9884 20.9867 23.3537 12.9454 23.3537 5.97175C23.3537 5.74293 23.3485 5.51533 23.3383 5.28905C24.3804 4.54501 25.2848 3.61552 26 2.55723Z" fill="#78839B"/>
</svg>
