<svg width="30" height="36" viewBox="0 0 30 36" fill="none" xmlns="http://www.w3.org/2000/svg">
<path d="M25.8413 12.9263C26.1719 12.9228 28.7717 14.3677 28.9111 14.6741C29.0607 15.0062 29.0146 15.3709 28.8234 15.6191L14.1365 34.6657C14.0353 34.7764 13.9476 34.8498 13.8228 34.9093C13.5742 35.0293 13.3044 35.0339 13.0626 34.9011C12.7118 34.7275 10.5415 32.8911 10.6517 32.4646L15.3824 24.512H5.08099C4.75039 24.5155 1.46126 21.2378 1.65242 20.9907C8.53654 11.8659 13.4505 5.39665 16.3967 1.58523C16.878 0.961834 19.0572 2.5139 19.4205 2.71315C19.796 2.87512 19.9928 3.30975 19.9074 3.7234L17.2637 14.2069L17.5866 12.9263H25.8413Z" stroke="#00FFCB" stroke-width="2"/>
<path d="M25.4228 12.4625C25.7511 12.459 26.0502 12.6548 26.1874 12.9589C26.3358 13.2886 26.2897 13.6499 26.1008 13.8957L11.5353 32.785C11.4353 32.8946 11.3475 32.968 11.225 33.0274C10.9787 33.1463 10.7111 33.1509 10.4716 33.0193C10.1241 32.8468 9.9037 32.4285 10.0128 32.0055L12.634 21.6094L1.84787 21.6432C1.51952 21.6467 1.22041 21.451 1.08322 21.1469C0.946033 20.8427 0.980893 20.4559 1.16981 20.21L15.7465 1.34516C15.9872 1.01308 16.4156 0.900051 16.7743 1.09697C17.1465 1.25777 17.3411 1.68774 17.2579 2.09906L14.6367 12.4951L25.4228 12.4613V12.4625Z" fill="#00FFCB"/>
</svg>
