<svg width="31" height="33" viewBox="0 0 31 33" fill="none" xmlns="http://www.w3.org/2000/svg">
<path d="M12.77 32.45C10.88 32.45 9.125 32.195 7.505 31.685C5.885 31.175 4.52 30.41 3.41 29.39C2.3 28.37 1.505 27.095 1.025 25.565C0.575 24.035 0.515 22.25 0.845 20.21C1.085 18.92 1.34 17.63 1.61 16.34C1.91 15.05 2.21 13.745 2.51 12.425C3.5 8.375 5.285 5.3 7.865 3.2C10.445 1.1 13.925 0.0499983 18.305 0.0499983C20.195 0.0499983 21.935 0.319998 23.525 0.859999C25.145 1.37 26.51 2.15 27.62 3.2C28.76 4.25 29.555 5.54 30.005 7.07C30.485 8.6 30.545 10.385 30.185 12.425C29.975 13.745 29.72 15.05 29.42 16.34C29.15 17.63 28.865 18.92 28.565 20.21C27.545 24.32 25.745 27.395 23.165 29.435C20.585 31.445 17.12 32.45 12.77 32.45ZM13.355 25.97C14.975 25.97 16.4 25.49 17.63 24.53C18.86 23.57 19.73 22.04 20.24 19.94C20.57 18.62 20.855 17.375 21.095 16.205C21.365 15.035 21.605 13.82 21.815 12.56C22.205 10.46 22.025 8.93 21.275 7.97C20.525 7.01 19.34 6.53 17.72 6.53C16.1 6.53 14.675 7.01 13.445 7.97C12.245 8.93 11.39 10.46 10.88 12.56C10.55 13.82 10.25 15.035 9.98 16.205C9.74 17.375 9.5 18.62 9.26 19.94C8.9 22.04 9.08 23.57 9.8 24.53C10.52 25.49 11.705 25.97 13.355 25.97Z" fill="#FF0000"/>
</svg>
