<svg width="25" height="28" viewBox="0 0 25 28" fill="none" xmlns="http://www.w3.org/2000/svg">
<path d="M15.6624 12.8293L17.7237 9.34022L23.2796 17.9729L23.2822 19.6295L23.2641 8.22937C23.251 7.9507 23.1026 7.69576 22.866 7.54543L12.8632 1.80559C12.6292 1.69089 12.3325 1.69211 12.0989 1.80915C12.0674 1.82497 12.0377 1.84209 12.0094 1.86077L11.9746 1.88267L2.26524 7.49555L2.22752 7.51258C2.17909 7.53483 2.13014 7.56307 2.08415 7.59592C1.9001 7.72765 1.77781 7.92237 1.73826 8.14082C1.73234 8.17393 1.72798 8.20765 1.72589 8.24162L1.74113 17.5317L6.91625 9.5299C7.56779 8.46885 8.98741 8.1271 10.3052 8.14569L11.8519 8.18644L2.73874 22.766L3.81299 23.3831L13.0354 8.20122L17.1117 8.18644L7.91307 23.7514L11.7463 25.9509L12.2043 26.2136C12.3981 26.2922 12.6264 26.2961 12.8218 26.2258L22.9652 20.3618L21.0259 21.4828L15.6624 12.8293ZM16.4488 24.1289L12.5771 18.067L14.9405 14.0663L20.0252 22.0613L16.4488 24.1289Z" fill="#2D374B"/>
<path d="M12.5771 18.067L16.4488 24.1289L20.0253 22.0613L14.9406 14.0663L12.5771 18.067Z" fill="#28A0F0"/>
<path d="M23.2822 19.6295L23.2796 17.9729L17.7237 9.34021L15.6624 12.8293L21.0259 21.4828L22.9652 20.3618C23.1554 20.2077 23.2705 19.9815 23.2826 19.7375L23.2822 19.6295Z" fill="#28A0F0"/>
<path d="M8.77208e-05 21.1919L2.73864 22.7661L11.8518 8.18649L10.3051 8.14573C8.98731 8.12714 7.56777 8.46889 6.91615 9.52995L1.74104 17.5317L0 20.2003V21.1919H8.77208e-05Z" fill="white"/>
<path d="M17.1115 8.1864L13.0353 8.20117L3.81293 23.383L7.03639 25.2346L7.913 23.7514L17.1115 8.1864Z" fill="white"/>
<path d="M25.0001 8.16551C24.966 7.31509 24.5045 6.53652 23.7814 6.08329L13.6476 0.269674C12.9323 -0.0896305 12.0388 -0.0900651 11.3225 0.269413C11.2378 0.311991 1.46745 5.96476 1.46745 5.96476C1.33227 6.02941 1.20204 6.10649 1.07949 6.1939C0.434048 6.65539 0.0405994 7.37244 0.000183105 8.1603V20.2004L1.74122 17.5318L1.72597 8.24172C1.72807 8.20774 1.73233 8.17438 1.73834 8.14136C1.77763 7.92273 1.90001 7.72774 2.08423 7.59601C2.13023 7.56317 12.0674 1.82507 12.099 1.80925C12.3326 1.69221 12.6294 1.69099 12.8633 1.80569L22.866 7.54553C23.1027 7.69585 23.251 7.9508 23.2642 8.22947V19.7376C23.2521 19.9816 23.1554 20.2077 22.9652 20.3619L21.0259 21.4829L20.0253 22.0614L16.4488 24.129L12.8218 26.2259C12.6264 26.2963 12.3981 26.2924 12.2043 26.2137L7.91306 23.7515L7.03645 25.2346L10.8929 27.4496C11.0204 27.5219 11.1341 27.586 11.2273 27.6384C11.3717 27.7192 11.47 27.7731 11.5048 27.7899C11.7789 27.9227 12.1732 28 12.5286 28C12.8545 28 13.1721 27.9403 13.4728 27.8228L24.0076 21.7365C24.6123 21.2692 24.968 20.5644 25.0001 19.8009V8.16551Z" fill="#96BEDC"/>
</svg>
