<svg width="24" height="24" viewBox="0 0 24 24" fill="none" xmlns="http://www.w3.org/2000/svg">
<path fill-rule="evenodd" clip-rule="evenodd" d="M23.0467 12.3209C23.0467 12.4064 22.961 12.4064 22.9181 12.3636C22.9181 12.3209 22.8753 12.3209 22.8753 12.2781C22.8325 12.2353 22.8753 12.1497 22.8753 12.107L22.9181 12.0642C22.961 12.0214 23.0467 12.0214 23.0467 12.0642C23.0467 12.1497 23.0467 12.2353 23.0467 12.3209ZM22.4898 10.8663C22.4041 10.9947 22.1899 11.0374 22.1042 10.8663C22.1042 10.8235 22.0614 10.8235 22.0614 10.7807C21.7187 10.2674 21.3332 9.79679 20.9476 9.28342C20.8619 9.15508 20.9476 8.98396 21.0761 8.98396C22.0614 8.98396 22.5754 9.24064 22.7468 9.54011C22.8753 9.83957 22.8325 10.2674 22.4898 10.8663ZM22.2756 16.0428C22.2327 16.1711 22.1471 16.2995 22.1042 16.4278C22.1042 16.4278 22.1042 16.4706 22.0614 16.4706C21.7187 17.1551 21.0761 17.7112 20.2622 18.0963C20.0909 18.1818 19.8767 18.0107 19.9195 17.8396C20.1765 16.8556 20.3907 15.8289 20.5192 14.7166C20.5621 14.5027 20.6477 14.3316 20.8191 14.2032C21.1618 13.9037 21.4617 13.6043 21.7615 13.3476C21.89 13.2193 22.1471 13.262 22.1899 13.4759C22.5326 14.3743 22.5326 15.2727 22.2756 16.0428ZM20.048 19.508C19.9623 19.5936 19.8767 19.6791 19.791 19.7647C19.6196 19.9358 19.4911 20.0642 19.3198 20.1925C19.2341 20.2781 19.0628 20.1497 19.1056 20.0642C19.1056 20.0214 19.1484 19.9786 19.1484 19.9786C19.2341 19.8503 19.2769 19.6791 19.3198 19.5508C19.3198 19.508 19.3626 19.508 19.4055 19.4652C19.5768 19.4225 19.7053 19.3797 19.8767 19.3369C20.048 19.2941 20.1337 19.4225 20.048 19.508ZM18.4202 18.6524C18.0775 18.6952 17.7348 18.738 17.3921 18.738C16.4925 18.7808 15.5929 18.6952 14.6076 18.5241C14.4791 18.4813 14.4791 18.3529 14.5648 18.3102C14.779 18.2246 14.9932 18.0963 15.2074 17.9679C16.6638 17.1979 18.0347 16.3422 19.2341 15.4866C19.3198 15.4011 19.4483 15.4866 19.4483 15.615C19.2769 16.5989 19.0628 17.5401 18.7629 18.3957C18.7201 18.5241 18.5915 18.6096 18.4202 18.6524ZM18.1203 19.9786C17.3492 21.5187 16.364 22.3743 15.4216 22.3743C14.3934 22.3743 13.3653 21.3048 12.6371 19.4652C12.5943 19.3369 12.6371 19.2086 12.7656 19.1658C12.7656 19.1658 12.7656 19.1658 12.8085 19.1658C12.8513 19.123 12.8941 19.123 12.9798 19.1658C14.3934 19.5508 15.7643 19.7647 17.0922 19.7647C17.2207 19.7647 17.3921 19.7647 17.5206 19.7647C17.6919 19.7647 17.8633 19.7647 17.9918 19.7219C18.0775 19.6791 18.1632 19.8503 18.1203 19.9786ZM13.451 22.9305C12.9798 22.9733 12.5086 23.016 12.0374 23.016C9.8955 23.016 7.83929 22.4171 6.08295 21.262C5.95443 21.1765 5.99727 21.0053 6.16862 21.0053C6.21146 21.0053 6.21146 21.0053 6.2543 21.0053C6.68267 20.9626 7.19672 20.9198 7.71078 20.7914C8.82456 20.5775 10.1097 20.1925 11.3948 19.7219C11.5233 19.6791 11.6518 19.7219 11.6947 19.8503C12.2087 21.0909 12.8513 22.0321 13.5367 22.631C13.6652 22.7166 13.5795 22.8877 13.451 22.9305ZM7.06821 15.1872C8.05348 14.4171 9.16726 13.6043 10.4095 12.877C10.4524 14.4599 10.6237 16 10.9236 17.369C10.4524 17.1551 9.98117 16.9412 9.5528 16.7273C8.6532 16.2995 7.83929 15.7433 7.06821 15.1872ZM4.02674 19.4652C3.81255 19.0374 4.11241 18.0107 5.61173 16.4706C5.78308 16.2995 5.74024 16.0428 5.56889 15.9144C5.52606 15.8717 5.44038 15.8289 5.39754 15.7861C5.22619 15.6578 5.012 15.6578 4.88349 15.8289C4.84065 15.8717 4.84065 15.8717 4.84065 15.8717C4.06958 16.6417 3.55552 17.369 3.25566 18.0107C3.16999 18.1818 2.91296 18.2246 2.78445 18.0535C1.58499 16.2567 0.985266 14.2032 0.985266 11.9786C0.985266 11.2086 1.07094 10.4385 1.24229 9.66845C1.28513 9.54011 1.41364 9.54011 1.45648 9.66845C1.67067 10.4385 2.05621 11.2086 2.57026 11.9786C3.25566 13.0481 4.15525 14.0749 5.26903 15.016C5.65457 15.3155 6.04011 15.6578 6.42565 15.9572C7.23956 16.5562 8.13915 17.1123 9.08158 17.6257C9.50996 17.8396 9.8955 18.0535 10.3239 18.2246C10.5381 18.3102 10.8379 18.3529 11.0521 18.2246C11.2663 18.139 11.4377 18.0535 11.6518 17.9679C11.866 17.8824 11.9945 17.6257 11.9517 17.4118C11.9517 17.369 11.9517 17.369 11.9517 17.3262C11.609 15.9144 11.4377 14.3743 11.3948 12.7059V12.6631C11.3948 12.5775 11.3948 12.492 11.3948 12.4064C11.3948 12.3636 11.3948 12.3209 11.3948 12.3209V12.2781C11.3948 12.1925 11.3948 12.0642 11.3948 11.9786C11.3948 11.6791 11.3948 11.4225 11.4377 11.123C11.5233 9.15508 11.866 7.27273 12.4229 5.68984C12.4658 5.5615 12.3801 5.39037 12.2516 5.34759C12.1231 5.30481 11.9517 5.26203 11.8232 5.21925C11.6947 5.17647 11.5233 5.26203 11.4805 5.39037C10.8808 7.1016 10.5381 9.1123 10.4524 11.2513C10.4524 11.508 10.281 11.7647 10.0668 11.893C8.78172 12.6631 7.6251 13.4332 6.63984 14.246C6.42565 14.4171 6.12578 14.4171 5.9116 14.246C4.88349 13.3904 4.06958 12.4064 3.42701 11.4225C2.14188 9.54011 1.84202 7.70054 2.57026 6.33155C2.65593 6.16043 2.74161 6.03209 2.87012 5.90374C3.68404 4.83423 5.22619 4.19251 7.2824 4.10695C7.41091 4.10695 7.53943 4.10695 7.66794 4.10695C8.91023 4.10695 10.2382 4.32086 11.609 4.70588C11.6518 4.70588 11.6518 4.70588 11.6947 4.74866C11.7375 4.74866 11.7375 4.74866 11.7804 4.74866C12.0802 4.83423 12.4229 4.96257 12.7228 5.04813C12.7228 5.04813 12.7228 5.04813 12.7656 5.04813C12.8513 5.09091 12.937 5.09091 13.0226 5.13369C13.0655 5.13369 13.0655 5.13369 13.1083 5.17647C13.1512 5.17647 13.1512 5.17647 13.194 5.21925C13.8794 5.47594 14.522 5.7754 15.1645 6.11765C16.4497 6.75936 17.6063 7.52941 18.5915 8.38503C16.6638 8.81283 14.4363 9.66845 12.1659 10.8235C12.0802 10.8663 11.9945 10.9947 11.9945 11.0802C11.9945 11.2086 11.9945 11.508 11.9517 11.7219C11.9517 11.8503 12.0802 11.9358 12.2087 11.893C14.4363 10.738 16.6638 9.83957 18.5915 9.36898C18.9342 9.28342 19.1913 8.94118 19.1484 8.55615C19.1056 8.29947 19.0628 8.04278 19.0199 7.7861C18.9771 7.48663 18.8057 7.18717 18.5487 7.01604C17.6491 6.33155 16.6638 5.68984 15.5929 5.17647C14.8647 4.79144 14.1364 4.49198 13.451 4.19251C13.2797 4.14973 13.2368 3.93583 13.3225 3.80749C14.0507 2.48128 14.9503 1.71123 15.8071 1.71123C15.8071 1.71123 15.8071 1.71123 15.8499 1.71123C16.878 1.71123 17.9061 2.78075 18.6344 4.62032C19.0199 5.5615 19.3198 6.63102 19.534 7.7861C19.6196 8.29947 19.7053 8.81283 19.7482 9.3262C19.8338 10.2246 19.8767 11.123 19.8338 12.0642C19.8338 12.6631 19.791 13.262 19.7482 13.8182C18.3774 14.9305 16.7067 16 14.8218 16.984C14.2221 17.3262 13.6224 17.6257 12.9798 17.8824C12.9798 17.8824 12.9798 17.8824 12.937 17.8824C12.8941 17.8824 12.8513 17.9251 12.8085 17.9251C12.2944 18.139 11.8232 18.3529 11.3091 18.5668C11.2663 18.5668 11.2663 18.5668 11.2235 18.6096C11.1806 18.6096 11.1378 18.6524 11.1378 18.6524C11.0521 18.6952 10.9664 18.6952 10.8808 18.738C10.8379 18.738 10.8379 18.738 10.7951 18.7808C10.7094 18.8235 10.5809 18.8663 10.4952 18.9091H10.4524C9.42428 19.2941 8.39618 19.5508 7.49659 19.7219C5.31187 20.2353 4.28376 19.9358 4.02674 19.4652ZM5.61173 3.03743C7.45375 1.71123 9.68131 0.983957 11.9945 0.983957C12.5943 0.983957 13.194 1.02674 13.7937 1.1123C13.9651 1.15508 14.0079 1.3262 13.8794 1.45455C13.3225 1.92513 12.7656 2.56684 12.2944 3.42246C12.1659 3.63636 11.9517 3.72193 11.6947 3.67914C10.1097 3.25134 8.56753 3.03743 7.15389 3.08021C6.63984 3.08021 6.12578 3.16578 5.65457 3.25134C5.56889 3.29412 5.52606 3.12299 5.61173 3.03743ZM20.7334 11.0374C20.7334 10.9091 20.9048 10.8663 20.9476 10.9519C21.0333 11.0802 21.119 11.2086 21.2046 11.3369C21.3331 11.508 21.4188 11.6791 21.5045 11.8503C21.5473 11.9358 21.5473 12.0642 21.4617 12.1925C21.3331 12.3209 21.2046 12.492 21.0333 12.6203C20.9904 12.6631 20.9048 12.7487 20.8619 12.7914C20.7763 12.877 20.6906 12.7914 20.6906 12.7059C20.6906 12.5348 20.6906 12.3636 20.6906 12.1497C20.7763 11.8075 20.7763 11.4225 20.7334 11.0374ZM19.6196 4.02139C19.7053 4.10695 19.7482 4.14973 19.8338 4.23529C20.9048 5.30481 21.7187 6.54545 22.2756 7.87166C22.3184 8 22.2327 8.17112 22.0614 8.12834C21.7615 8.08556 21.376 8.04278 20.9904 8.04278C20.7334 8.04278 20.4764 7.87166 20.4336 7.57219C20.2194 6.37433 19.9195 5.26203 19.4911 4.27808C19.4483 4.23529 19.4483 4.14973 19.4055 4.10695C19.3626 4.02139 19.534 3.93583 19.6196 4.02139ZM23.7749 9.49733C23.3037 7.22995 22.1899 5.17647 20.5192 3.50802C18.2488 1.24064 15.2074 0 12.0374 0C8.82456 0 5.78308 1.24064 3.51269 3.50802C2.9558 4.06417 2.48458 4.6631 2.05621 5.30481C1.92769 5.47594 1.79918 5.64706 1.71351 5.86096C0.599727 7.70054 0 9.83957 0 12.0214C0 15.2299 1.24229 18.2246 3.51269 20.492C5.78308 22.7594 8.78172 24 11.9945 24C15.2074 24 18.206 22.7594 20.4764 20.492C21.5473 19.4225 22.4041 18.1818 23.0038 16.8556C23.0895 16.7273 23.1323 16.5562 23.1752 16.385C23.7321 15.016 23.9891 13.5187 23.9891 12.0214C24.0319 11.1658 23.9462 10.3529 23.7749 9.49733Z" fill="black"/>
</svg>
