<svg width="26" height="21" viewBox="0 0 26 21" fill="none" xmlns="http://www.w3.org/2000/svg">
<path d="M26 2.55717C25.0434 2.97689 24.0153 3.26056 22.9363 3.38814C24.0377 2.73499 24.8834 1.70079 25.2817 0.468526C24.2511 1.07322 23.1095 1.51242 21.8944 1.74915C20.9214 0.723502 19.535 0.0825806 18.0009 0.0825806C15.0549 0.0825806 12.6665 2.44539 12.6665 5.35974C12.6665 5.77335 12.7137 6.17614 12.8047 6.56236C8.37137 6.34229 4.44089 4.24133 1.80999 1.04857C1.35083 1.82799 1.08778 2.73452 1.08778 3.70164C1.08778 5.53249 2.02958 7.14777 3.46087 8.0941C2.5864 8.06672 1.76396 7.82934 1.0447 7.43408C1.04432 7.4561 1.04432 7.47821 1.04432 7.50041C1.04432 10.0573 2.88302 12.1903 5.32325 12.675C4.87561 12.7956 4.40437 12.8601 3.91783 12.8601C3.57413 12.8601 3.23994 12.8271 2.91431 12.7654C3.59306 14.8621 5.563 16.3878 7.89719 16.4304C6.07161 17.8458 3.77156 18.6894 1.27247 18.6894C0.84194 18.6894 0.417309 18.6645 0 18.6158C2.36063 20.1131 5.16453 20.9867 8.17689 20.9867C17.9884 20.9867 23.3537 12.9453 23.3537 5.97168C23.3537 5.74286 23.3485 5.51527 23.3383 5.28899C24.3804 4.54495 25.2848 3.61546 26 2.55717Z" fill="white" fill-opacity="0.7"/>
</svg>
